<svg width="100" height="100" viewBox="0 0 100 100" xmlns="http://www.w3.org/2000/svg">
  <defs>
    <linearGradient id="instaGradient" x1="0%" y1="100%" x2="100%" y2="0%">
      <stop offset="0%" style="stop-color:#f09433;stop-opacity:1" />
      <stop offset="25%" style="stop-color:#e6683c;stop-opacity:1" />
      <stop offset="50%" style="stop-color:#dc2743;stop-opacity:1" />
      <stop offset="75%" style="stop-color:#cc2366;stop-opacity:1" />
      <stop offset="100%" style="stop-color:#bc1888;stop-opacity:1" />
    </linearGradient>
    <filter id="glow" x="-20%" y="-20%" width="140%" height="140%">
      <feGaussianBlur stdDeviation="2" result="blur" />
      <feComposite in="SourceGraphic" in2="blur" operator="over" />
    </filter>
  </defs>
  <rect x="5" y="5" width="90" height="90" rx="22" fill="url(#instaGradient)" />
  <circle cx="50" cy="28" r="3" fill="white" />
  <circle cx="50" cy="72" r="3" fill="white" />
  <circle cx="28" cy="50" r="3" fill="white" />
  <circle cx="72" cy="50" r="3" fill="white" />
  <circle cx="34" cy="34" r="3" fill="white" />
  <circle cx="66" cy="66" r="3" fill="white" />
  <circle cx="34" cy="66" r="3" fill="white" />
  <circle cx="66" cy="34" r="3" fill="white" />
  <line x1="50" y1="28" x2="66" y2="34" stroke="white" stroke-width="1.5" opacity="0.6" />
  <line x1="66" y1="34" x2="72" y2="50" stroke="white" stroke-width="1.5" opacity="0.6" />
  <line x1="72" y1="50" x2="66" y2="66" stroke="white" stroke-width="1.5" opacity="0.6" />
  <line x1="66" y1="66" x2="50" y2="72" stroke="white" stroke-width="1.5" opacity="0.6" />
  <line x1="50" y1="72" x2="34" y2="66" stroke="white" stroke-width="1.5" opacity="0.6" />
  <line x1="34" y1="66" x2="28" y2="50" stroke="white" stroke-width="1.5" opacity="0.6" />
  <line x1="28" y1="50" x2="34" y2="34" stroke="white" stroke-width="1.5" opacity="0.6" />
  <line x1="34" y1="34" x2="50" y2="28" stroke="white" stroke-width="1.5" opacity="0.6" />
  <line x1="50" y1="35" x2="50" y2="65" stroke="white" stroke-width="1" opacity="0.3" />
  <line x1="35" y1="50" x2="65" y2="50" stroke="white" stroke-width="1" opacity="0.3" />
  <path d="M50 35 L52 48 L65 50 L52 52 L50 65 L48 52 L35 50 L48 48 Z" fill="white" filter="url(#glow)" stroke="white" stroke-width="0.5" opacity="1" />
  <circle cx="50" cy="50" r="18" fill="none" stroke="white" stroke-width="1.5" opacity="0.5" />
</svg>
